<?xml version="1.0" encoding="utf-8"?>
<svg xmlns="http://www.w3.org/2000/svg" height="25" width="25" viewBox="0 0 48 48">
  <g>
    <path id="path1" transform="rotate(0,24,24) translate(11,11.0000015497206) scale(0.812499903142464,0.812499903142464)  " fill="#000000" d="M11.893001,3.6590006C7.3370007,3.6590006 3.6599983,7.337002 3.6599983,11.893002 3.6599983,16.448002 7.3370007,20.126 11.893001,20.126 16.449002,20.126 20.126004,16.448002 20.126004,11.893002 20.126004,7.337002 16.449002,3.6590006 11.893001,3.6590006z M11.893001,0C18.461003,1.7649522E-07 23.786003,5.3240015 23.786003,11.893002 23.786003,14.838001 22.706002,17.546002 20.913002,19.632L21.425003,20.126 22.871003,20.126 32.000002,29.273998 29.274004,32 20.126004,22.869999 20.126004,21.424999 19.632,20.912998C17.546002,22.706001 14.839,23.785 11.893001,23.785 5.3249997,23.785 0,18.460999 0,11.893002 0,5.3240015 5.3249997,1.7649522E-07 11.893001,0z" />
  </g>
</svg>